<svg width="300" height="300" viewBox="0 0 300 300" fill="none" xmlns="http://www.w3.org/2000/svg">
<circle cx="150" cy="150" r="142.5" fill="white" stroke="black" stroke-width="15"/>
<path d="M103.649 223V77.5455H152.797C164.16 77.5455 173.488 79.4867 180.779 83.3693C188.071 87.2045 193.469 92.4839 196.973 99.2074C200.476 105.931 202.228 113.578 202.228 122.148C202.228 130.718 200.476 138.317 196.973 144.946C193.469 151.575 188.095 156.783 180.85 160.571C173.606 164.312 164.35 166.182 153.081 166.182H113.308V150.273H152.512C160.278 150.273 166.528 149.136 171.262 146.864C176.045 144.591 179.501 141.371 181.632 137.205C183.81 132.991 184.899 127.972 184.899 122.148C184.899 116.324 183.81 111.234 181.632 106.878C179.454 102.522 175.974 99.16 171.191 96.7926C166.409 94.3778 160.088 93.1705 152.228 93.1705H121.262V223H103.649ZM172.115 157.659L207.91 223H187.456L152.228 157.659H172.115Z" fill="black"/>
</svg>
